<svg width="138" height="40" viewBox="0 0 138 40" fill="none" xmlns="http://www.w3.org/2000/svg">
<rect x="0.5" y="0.5" width="137" height="39" rx="7.5" stroke="#222222" stroke-opacity="0.3"/>
<path d="M17.4261 18H16.1932C16.1203 17.6454 15.9927 17.3338 15.8104 17.0653C15.6314 16.7969 15.4126 16.5715 15.1541 16.3892C14.8989 16.2036 14.6155 16.0644 14.304 15.9716C13.9924 15.8788 13.6676 15.8324 13.3295 15.8324C12.7131 15.8324 12.1546 15.9882 11.6541 16.2997C11.157 16.6113 10.7609 17.0703 10.4659 17.6768C10.1742 18.2834 10.0284 19.0275 10.0284 19.9091C10.0284 20.7907 10.1742 21.5348 10.4659 22.1413C10.7609 22.7479 11.157 23.2069 11.6541 23.5185C12.1546 23.83 12.7131 23.9858 13.3295 23.9858C13.6676 23.9858 13.9924 23.9394 14.304 23.8466C14.6155 23.7538 14.8989 23.6162 15.1541 23.4339C15.4126 23.2483 15.6314 23.0213 15.8104 22.7528C15.9927 22.4811 16.1203 22.1695 16.1932 21.8182H17.4261C17.3333 22.3385 17.1643 22.8042 16.919 23.2152C16.6738 23.6262 16.3688 23.9759 16.0043 24.2642C15.6397 24.5492 15.2304 24.7663 14.7763 24.9155C14.3255 25.0646 13.8433 25.1392 13.3295 25.1392C12.4612 25.1392 11.6889 24.9271 11.0128 24.5028C10.3366 24.0786 9.80469 23.4754 9.4169 22.6932C9.02912 21.911 8.83523 20.983 8.83523 19.9091C8.83523 18.8352 9.02912 17.9072 9.4169 17.125C9.80469 16.3428 10.3366 15.7396 11.0128 15.3153C11.6889 14.8911 12.4612 14.679 13.3295 14.679C13.8433 14.679 14.3255 14.7536 14.7763 14.9027C15.2304 15.0518 15.6397 15.2706 16.0043 15.5589C16.3688 15.844 16.6738 16.192 16.919 16.603C17.1643 17.0107 17.3333 17.4763 17.4261 18ZM21.5066 25.179C21.0227 25.179 20.5835 25.0878 20.1891 24.9055C19.7947 24.7199 19.4815 24.4531 19.2495 24.1051C19.0175 23.7538 18.9015 23.3295 18.9015 22.8324C18.9015 22.3949 18.9876 22.0402 19.16 21.7685C19.3323 21.4934 19.5627 21.2779 19.851 21.1222C20.1394 20.9664 20.4576 20.8504 20.8056 20.7741C21.1569 20.6946 21.5099 20.6316 21.8645 20.5852C22.3285 20.5256 22.7047 20.4808 22.9931 20.451C23.2847 20.4179 23.4969 20.3632 23.6294 20.2869C23.7653 20.2107 23.8333 20.0781 23.8333 19.8892V19.8494C23.8333 19.3589 23.699 18.9777 23.4306 18.706C23.1654 18.4342 22.7627 18.2983 22.2225 18.2983C21.6623 18.2983 21.2232 18.4209 20.905 18.6662C20.5868 18.9115 20.3631 19.1733 20.2338 19.4517L19.1202 19.054C19.3191 18.59 19.5842 18.2287 19.9157 17.9702C20.2504 17.7083 20.615 17.526 21.0094 17.4233C21.4071 17.3172 21.7982 17.2642 22.1827 17.2642C22.428 17.2642 22.7097 17.294 23.0279 17.3537C23.3494 17.41 23.6593 17.5277 23.9576 17.7067C24.2592 17.8857 24.5094 18.1558 24.7083 18.517C24.9071 18.8783 25.0066 19.3622 25.0066 19.9688V25H23.8333V23.9659H23.7736C23.6941 24.1316 23.5615 24.3089 23.3759 24.4979C23.1903 24.6868 22.9434 24.8475 22.6351 24.9801C22.3269 25.1127 21.9507 25.179 21.5066 25.179ZM21.6855 24.125C22.1496 24.125 22.5407 24.0339 22.8588 23.8516C23.1803 23.6693 23.4223 23.4339 23.5847 23.1456C23.7504 22.8572 23.8333 22.554 23.8333 22.2358V21.1619C23.7836 21.2216 23.6742 21.2763 23.5051 21.326C23.3394 21.3724 23.1472 21.4138 22.9284 21.4503C22.713 21.4834 22.5025 21.5133 22.2971 21.5398C22.0949 21.563 21.9308 21.5829 21.8049 21.5994C21.4999 21.6392 21.2149 21.7038 20.9498 21.7933C20.6879 21.8795 20.4758 22.0104 20.3134 22.1861C20.1543 22.3584 20.0748 22.5937 20.0748 22.892C20.0748 23.2997 20.2256 23.608 20.5272 23.8168C20.8321 24.0223 21.2182 24.125 21.6855 24.125ZM30.4691 17.3636V18.358H26.5117V17.3636H30.4691ZM27.6651 15.5341H28.8384V22.8125C28.8384 23.1439 28.8865 23.3925 28.9826 23.5582C29.082 23.7206 29.208 23.83 29.3604 23.8864C29.5162 23.9394 29.6803 23.9659 29.8526 23.9659C29.9819 23.9659 30.088 23.9593 30.1708 23.946C30.2537 23.9295 30.32 23.9162 30.3697 23.9062L30.6083 24.9602C30.5288 24.9901 30.4177 25.0199 30.2752 25.0497C30.1327 25.0829 29.9521 25.0994 29.7333 25.0994C29.4019 25.0994 29.0771 25.0282 28.7589 24.8857C28.444 24.7431 28.1822 24.526 27.9734 24.2344C27.7679 23.9427 27.6651 23.5748 27.6651 23.1307V15.5341ZM35.3537 25.1591C34.6179 25.1591 33.9832 24.9967 33.4496 24.6719C32.9193 24.3438 32.5099 23.8864 32.2216 23.2997C31.9366 22.7098 31.794 22.0237 31.794 21.2415C31.794 20.4593 31.9366 19.7699 32.2216 19.1733C32.5099 18.5734 32.911 18.1061 33.4247 17.7713C33.9418 17.4332 34.545 17.2642 35.2344 17.2642C35.6321 17.2642 36.0249 17.3305 36.4126 17.4631C36.8004 17.5956 37.1534 17.8111 37.4716 18.1094C37.7898 18.4044 38.0433 18.7955 38.2322 19.2827C38.4212 19.7699 38.5156 20.3698 38.5156 21.0824V21.5795H32.6293V20.5653H37.3224C37.3224 20.1345 37.2363 19.75 37.0639 19.4119C36.8949 19.0739 36.6529 18.8071 36.3381 18.6115C36.0265 18.416 35.6586 18.3182 35.2344 18.3182C34.767 18.3182 34.3627 18.4342 34.0213 18.6662C33.6832 18.8949 33.4231 19.1932 33.2408 19.5611C33.0585 19.929 32.9673 20.3234 32.9673 20.7443V21.4205C32.9673 21.9972 33.0668 22.486 33.2656 22.8871C33.4678 23.2848 33.7479 23.5881 34.1058 23.7969C34.4638 24.0024 34.8797 24.1051 35.3537 24.1051C35.6619 24.1051 35.9403 24.062 36.1889 23.9759C36.4408 23.8864 36.6579 23.7538 36.8402 23.5781C37.0225 23.3991 37.1634 23.1771 37.2628 22.9119L38.3963 23.2301C38.277 23.6146 38.0765 23.9527 37.7947 24.2443C37.513 24.5327 37.165 24.758 36.7507 24.9205C36.3364 25.0795 35.8707 25.1591 35.3537 25.1591ZM43.3828 28.0227C42.8161 28.0227 42.3288 27.9498 41.9212 27.804C41.5135 27.6615 41.1738 27.4725 40.902 27.2372C40.6335 27.0052 40.4197 26.7566 40.2607 26.4915L41.1953 25.8352C41.3014 25.9744 41.4356 26.1335 41.598 26.3125C41.7604 26.4948 41.9825 26.6522 42.2642 26.7848C42.5492 26.9207 42.9221 26.9886 43.3828 26.9886C43.9993 26.9886 44.508 26.8395 44.9091 26.5412C45.3101 26.2429 45.5107 25.7756 45.5107 25.1392V23.5881H45.4112C45.325 23.7273 45.2024 23.8996 45.0433 24.1051C44.8875 24.3073 44.6622 24.4879 44.3672 24.647C44.0755 24.8028 43.6811 24.8807 43.1839 24.8807C42.5675 24.8807 42.014 24.7348 41.5234 24.4432C41.0362 24.1515 40.6501 23.7273 40.3651 23.1705C40.0833 22.6136 39.9425 21.9375 39.9425 21.142C39.9425 20.3598 40.08 19.6787 40.3551 19.0987C40.6302 18.5154 41.013 18.0646 41.5036 17.7464C41.9941 17.425 42.5608 17.2642 43.2038 17.2642C43.701 17.2642 44.0954 17.3471 44.3871 17.5128C44.6821 17.6752 44.9074 17.8608 45.0632 18.0696C45.2223 18.2751 45.3449 18.4441 45.4311 18.5767H45.5504V17.3636H46.6839V25.2188C46.6839 25.875 46.5348 26.4086 46.2365 26.8196C45.9415 27.2339 45.5438 27.5372 45.0433 27.7294C44.5462 27.925 43.9927 28.0227 43.3828 28.0227ZM43.343 23.8267C43.8137 23.8267 44.2114 23.719 44.5362 23.5036C44.861 23.2881 45.108 22.9782 45.277 22.5739C45.446 22.1695 45.5305 21.6856 45.5305 21.1222C45.5305 20.572 45.4477 20.0864 45.282 19.6655C45.1162 19.2446 44.871 18.9148 44.5462 18.6761C44.2214 18.4375 43.8203 18.3182 43.343 18.3182C42.8459 18.3182 42.4316 18.4441 42.1001 18.696C41.772 18.9479 41.5251 19.286 41.3594 19.7102C41.197 20.1345 41.1158 20.6051 41.1158 21.1222C41.1158 21.6525 41.1986 22.1214 41.3643 22.5291C41.5334 22.9335 41.782 23.2517 42.1101 23.4837C42.4415 23.7124 42.8525 23.8267 43.343 23.8267ZM51.9339 25.1591C51.2446 25.1591 50.6397 24.995 50.1193 24.6669C49.6023 24.3388 49.1979 23.8797 48.9062 23.2898C48.6179 22.6998 48.4737 22.0104 48.4737 21.2216C48.4737 20.4261 48.6179 19.7318 48.9062 19.1385C49.1979 18.5452 49.6023 18.0845 50.1193 17.7564C50.6397 17.4283 51.2446 17.2642 51.9339 17.2642C52.6233 17.2642 53.2266 17.4283 53.7436 17.7564C54.264 18.0845 54.6683 18.5452 54.9567 19.1385C55.2483 19.7318 55.3942 20.4261 55.3942 21.2216C55.3942 22.0104 55.2483 22.6998 54.9567 23.2898C54.6683 23.8797 54.264 24.3388 53.7436 24.6669C53.2266 24.995 52.6233 25.1591 51.9339 25.1591ZM51.9339 24.1051C52.4576 24.1051 52.8885 23.9709 53.2266 23.7024C53.5646 23.4339 53.8149 23.081 53.9773 22.6435C54.1397 22.206 54.2209 21.732 54.2209 21.2216C54.2209 20.7112 54.1397 20.2356 53.9773 19.7947C53.8149 19.3539 53.5646 18.9976 53.2266 18.7259C52.8885 18.4541 52.4576 18.3182 51.9339 18.3182C51.4103 18.3182 50.9794 18.4541 50.6413 18.7259C50.3033 18.9976 50.053 19.3539 49.8906 19.7947C49.7282 20.2356 49.647 20.7112 49.647 21.2216C49.647 21.732 49.7282 22.206 49.8906 22.6435C50.053 23.081 50.3033 23.4339 50.6413 23.7024C50.9794 23.9709 51.4103 24.1051 51.9339 24.1051ZM57.1852 25V17.3636H58.3187V18.517H58.3983C58.5375 18.1392 58.7894 17.8326 59.1539 17.5973C59.5185 17.362 59.9295 17.2443 60.3869 17.2443C60.4731 17.2443 60.5808 17.246 60.71 17.2493C60.8393 17.2526 60.9371 17.2576 61.0034 17.2642V18.4574C60.9636 18.4474 60.8725 18.4325 60.7299 18.4126C60.5907 18.3894 60.4432 18.3778 60.2875 18.3778C59.9163 18.3778 59.5848 18.4557 59.2931 18.6115C59.0048 18.764 58.7761 18.9761 58.6071 19.2479C58.4413 19.5163 58.3585 19.8229 58.3585 20.1676V25H57.1852ZM63.3823 27.8636C63.1834 27.8636 63.0061 27.8471 62.8503 27.8139C62.6945 27.7841 62.5868 27.7543 62.5272 27.7244L62.8255 26.6903C63.1105 26.7633 63.3624 26.7898 63.5811 26.7699C63.7999 26.75 63.9938 26.6522 64.1628 26.4766C64.3352 26.3042 64.4926 26.0241 64.6351 25.6364L64.8539 25.0398L62.03 17.3636H63.3027L65.4107 23.4489H65.4902L67.5982 17.3636H68.8709L65.6294 26.1136C65.4836 26.508 65.303 26.8345 65.0875 27.093C64.8721 27.3549 64.6219 27.5488 64.3368 27.6747C64.0551 27.8007 63.7369 27.8636 63.3823 27.8636Z" fill="#222222"/>
<rect x="106" y="8" width="24" height="24" rx="8" fill="#E1E1E1"/>
</svg>
